<svg xmlns="http://www.w3.org/2000/svg" viewBox="0 0 120 100" fill="none">
  <!-- Right arrow (black, top) -->
  <line x1="30" y1="12" x2="90" y2="12" stroke="#2C2C2C" stroke-width="5" stroke-linecap="round"/>
  <polyline points="80,6 90,12 80,18" stroke="#2C2C2C" stroke-width="5" stroke-linecap="round" stroke-linejoin="round" fill="none"/>

  <!-- Dark gear (left, back) -->
  <g transform="translate(28,50)">
    <path d="M0,-22 L5,-18 L10,-20 L14,-16 L12,-11 L16,-7 L16,-1 L11,1 L11,7 L7,10 L2,7 L-2,10 L-7,7 L-7,1 L-11,-1 L-11,-7 L-7,-10 L-7,-16 L-3,-20 Z" fill="#2C2C2C"/>
    <circle cx="0" cy="-5" r="7" fill="white"/>
  </g>

  <!-- Orange gear (right, front) -->
  <g transform="translate(72,55)">
    <path d="M0,-22 L5,-18 L10,-20 L14,-16 L12,-11 L16,-7 L16,-1 L11,1 L11,7 L7,10 L2,7 L-2,10 L-7,7 L-7,1 L-11,-1 L-11,-7 L-7,-10 L-7,-16 L-3,-20 Z" fill="#E67E22"/>
    <circle cx="0" cy="-5" r="7" fill="white"/>
  </g>

  <!-- Left arrow (orange, bottom) -->
  <line x1="88" y1="88" x2="28" y2="88" stroke="#E67E22" stroke-width="5" stroke-linecap="round"/>
  <polyline points="38,82 28,88 38,94" stroke="#E67E22" stroke-width="5" stroke-linecap="round" stroke-linejoin="round" fill="none"/>
</svg>
