<?xml version="1.0" encoding="UTF-8"?>
<!DOCTYPE svg PUBLIC "-//W3C//DTD SVG 1.1//EN" "http://www.w3.org/Graphics/SVG/1.1/DTD/svg11.dtd">
<!-- Creator: CorelDRAW -->
<svg xmlns="http://www.w3.org/2000/svg" xml:space="preserve" width="319.066mm" height="98.4247mm" version="1.1" style="shape-rendering:geometricPrecision; text-rendering:geometricPrecision; image-rendering:optimizeQuality; fill-rule:evenodd; clip-rule:evenodd"
viewBox="0 0 1874.49 578.24"
 xmlns:xlink="http://www.w3.org/1999/xlink"
 xmlns:xodm="http://www.corel.com/coreldraw/odm/2003">
 <defs>
  <style type="text/css">
   <![CDATA[
    .fil3 {fill:#2B2A29}
    .fil2 {fill:#EF7F1A}
    .fil1 {fill:#2B2A29;fill-rule:nonzero}
    .fil0 {fill:#EF7F1A;fill-rule:nonzero}
   ]]>
  </style>
 </defs>
 <g id="Katman_x0020_1">
  <metadata id="CorelCorpID_0Corel-Layer"/>
  <g id="_1972952389184">
   <path class="fil0" d="M792.17 272.48c27.52,0 53.3,-8.71 72.11,-20.9l-24.38 -60.96c-10.8,7.32 -21.95,11.84 -31,11.84 -16.72,0 -15.68,-16.02 -15.68,-44.59 0,-10.8 -0.35,-22.99 -0.35,-36.58l39.01 0 0 -36.58 -39.36 0c-0.35,-23.69 -0.35,-48.77 0.7,-73.85l-81.17 0c0.7,18.81 0.7,46.68 0.7,73.85l-22.29 0 0 36.58 68.62 0 0 3.83c-37.97,0 -51.21,25.08 -51.21,57.83 0,29.61 10.8,89.53 84.3,89.53zm78.73 -3.83l80.82 0c-1.05,-30.65 -1.39,-57.48 -1.39,-88.48l0 -3.48c0,-22.29 3.48,-47.38 26.13,-47.38 17.42,0 22.29,14.63 29.96,36.23l24.04 -80.47c-9.06,-3.14 -18.46,-4.18 -27.87,-4.18 -28.91,0 -48.07,10.8 -65.49,63.4l-3.48 0 16.72 -59.57 -79.42 0c1.74,60.61 1.74,123.32 0,183.93zm159.2 -220.5c0,20.2 12.89,41.11 47.72,41.11 35.18,0 45.29,-20.9 45.29,-41.11 0,-19.86 -10.1,-40.76 -45.29,-40.76 -34.83,0 -47.72,20.9 -47.72,40.76zm6.27 220.5l80.82 0c-1.74,-60.61 -1.74,-108.68 0,-169.3l-80.82 0c1.74,60.61 1.74,108.68 0,169.3zm97.54 0l80.82 0c-1.05,-30.65 -1.39,-57.48 -1.39,-88.48l0 -3.48c0,-22.29 3.48,-47.38 19.86,-47.38 13.93,0 18.46,17.42 20.55,50.51 1.74,25.78 1.74,57.83 -2.09,88.83l81.16 0c-3.83,-37.62 -3.83,-76.64 -3.13,-94.4 3.13,-67.23 -19.86,-93.36 -59.92,-93.36 -25.78,0 -52.25,10.8 -69.67,63.4l-3.48 0 16.72 -59.57 -79.42 0c1.74,60.61 1.74,123.32 0,183.93zm211.8 0l80.82 0c-1.05,-23.34 -1.74,-46.68 -2.44,-70.37l7.66 0c8.71,23.34 14.98,47.03 18.46,70.37l91.27 0c-13.24,-30.31 -25.08,-61.31 -34.83,-91.96 9.75,-30.65 21.6,-62.01 34.83,-91.96l-91.27 0c-1.04,22.99 -4.88,47.03 -11.15,70.02l-15.68 0c-0.7,-48.07 0,-96.14 1.74,-143.87l-79.42 0c3.83,85 3.83,172.78 0,257.78z"/>
   <path class="fil1" d="M698.11 567.02l80.82 0c-1.05,-30.65 -1.39,-57.48 -1.39,-88.48l0 -3.48c0,-22.29 3.48,-43.89 12.89,-43.89 8.71,0 12.89,16.02 13.24,62.7 0,10.1 0,42.15 -2.44,73.15l80.82 0c-3.48,-35.88 -2.44,-72.8 -2.44,-91.96 0,-22.29 3.14,-43.89 12.89,-43.89 8.36,0 12.89,16.02 13.24,62.7 0,10.1 0,42.15 -2.44,73.15l80.82 0c-3.83,-37.62 -3.83,-76.64 -2.79,-94.4 2.79,-67.23 -19.86,-93.36 -51.21,-93.36 -19.86,0 -46.33,10.8 -63.75,63.4l-3.83 0c9.75,-32.75 4.53,-63.4 -34.49,-63.4 -19.86,0 -46.33,10.8 -63.75,63.4l-3.48 0c5.23,-19.51 14.63,-37.62 16.72,-59.57l-79.42 0c1.74,60.61 1.74,123.32 0,183.93zm397.12 -67.58c-2.09,13.24 -7.31,22.99 -17.42,22.99 -6.97,0 -9.75,-4.88 -9.75,-9.75 0,-10.8 12.19,-16.02 26.82,-17.77 0,1.39 0.35,2.79 0.35,4.53zm78.03 67.58c-3.83,-30.31 -3.83,-60.96 -3.13,-75.59 3.13,-70.02 -27.87,-112.17 -90.92,-112.17 -28.22,0 -53.99,8.36 -72.8,20.55l24.38 61.31c11.84,-8.36 25.78,-11.84 37.27,-11.84 14.98,0 21.6,6.62 25.08,25.08 -54.34,-12.89 -101.37,-5.57 -101.37,42.15 0,34.84 24.73,54.34 50.51,54.34 29.26,0 52.6,-25.43 63.4,-63.4l3.48 0 -17.07 59.57 81.16 0zm11.84 0l80.82 0c-1.05,-23.34 -1.74,-46.68 -2.44,-70.37l7.66 0c8.71,23.34 14.98,47.03 18.46,70.37l91.27 0c-13.24,-30.31 -25.08,-61.31 -34.83,-91.96 9.75,-30.65 21.6,-62.01 34.83,-91.96l-91.27 0c-1.04,22.99 -4.88,47.03 -11.15,70.02l-15.68 0c-0.7,-48.07 0,-96.14 1.74,-143.87l-79.42 0c3.83,85 3.83,172.78 0,257.78zm197.86 -220.5c0,20.2 12.89,41.11 47.72,41.11 35.18,0 45.29,-20.9 45.29,-41.11 0,-19.86 -10.1,-40.76 -45.29,-40.76 -34.83,0 -47.72,20.9 -47.72,40.76zm6.27 220.5l80.82 0c-1.74,-60.61 -1.74,-108.68 0,-169.3l-80.82 0c1.74,60.61 1.74,108.68 0,169.3zm97.54 0l80.82 0c-1.05,-30.65 -1.39,-57.48 -1.39,-88.48l0 -3.48c0,-22.29 3.48,-47.38 19.86,-47.38 13.93,0 18.46,17.42 20.55,50.51 1.74,25.78 1.74,57.83 -2.09,88.83l81.16 0c-3.83,-37.62 -3.83,-76.64 -3.13,-94.4 3.13,-67.23 -19.86,-93.36 -59.92,-93.36 -25.78,0 -52.25,10.8 -69.67,63.4l-3.48 0 16.72 -59.57 -79.42 0c1.74,60.61 1.74,123.32 0,183.93zm309.68 -67.58c-2.09,13.24 -7.31,22.99 -17.42,22.99 -6.97,0 -9.75,-4.88 -9.75,-9.75 0,-10.8 12.19,-16.02 26.82,-17.77 0,1.39 0.35,2.79 0.35,4.53zm78.03 67.58c-3.83,-30.31 -3.83,-60.96 -3.13,-75.59 3.13,-70.02 -27.87,-112.17 -90.92,-112.17 -28.22,0 -53.99,8.36 -72.8,20.55l24.38 61.31c11.84,-8.36 25.78,-11.84 37.27,-11.84 14.98,0 21.6,6.62 25.08,25.08 -54.34,-12.89 -101.37,-5.57 -101.37,42.15 0,34.84 24.73,54.34 50.51,54.34 29.26,0 52.6,-25.43 63.4,-63.4l3.48 0 -17.07 59.57 81.16 0z"/>
  </g>
  <g id="_1972952388752">
   <path class="fil2" d="M159.28 370.74c1.81,7.02 9.16,15.01 19.05,13.35 8.05,-1.35 14.88,-7.65 24.39,-10.29 28.14,-7.82 54.72,10.7 63.07,34.77 8.63,24.89 -11.89,40.23 22.8,46.7 71.91,13.4 48.9,6.79 66.03,-23.25 15.97,-28.01 60.92,-39.37 87.91,-4.76 5.68,7.28 13.72,11.76 24.36,6.16 6.51,-3.42 14.69,-9.92 20.53,-14.18 13.46,-9.83 35.11,-18.17 21.95,-39.15 -21.47,-34.23 2.93,-76.53 39.76,-80.59 26.88,-2.96 30.23,9.78 37.38,-29.72 1.61,-8.88 4.11,-20.13 5.02,-28.63 3.5,-32.78 -35.61,-12.14 -51.38,-51.33 -17.54,-43.59 16.12,-62.2 21.93,-70.53 6.28,-9.01 1.26,-18.63 -5.22,-23.38l-98.96 67.22c-9.48,9.81 23.72,38.3 0.25,99.7 -28.1,73.52 -120.21,98.53 -184.96,47.05 -4.3,-3.42 -7.06,-9.82 -14.09,-8.19 -3.19,0.74 -11.88,7.64 -14.78,9.64 -15.28,10.53 -75.76,51.01 -85.02,59.39z"/>
   <path class="fil3" d="M42.44 496.81l54.33 -41.67c8.88,-7.01 17.3,-13.44 26.64,-20.75 17.9,-13.99 18.68,-8.68 11.01,-27.28 -14.94,-36.21 -10.38,-83.16 12.72,-113.19 9.45,-12.29 12.4,-14.9 23.75,-24.74 37.42,-32.44 102.23,-33.64 143.78,-0.74 18.74,14.84 9.81,7.82 62.58,-29.88l47.5 -37.75c-2.08,-5.01 -10.52,-13.74 -19.76,-11.93 -7.39,1.44 -13.12,8.52 -23.03,11.58 -27.68,8.53 -55.64,-6.49 -65.64,-30.74 -9.88,-23.98 6.1,-41.88 -22.47,-45.86 -10.2,-1.42 -20.49,-2.68 -30.68,-3.93 -35.51,-4.36 -24.72,6.17 -35.96,29.93 -12.93,27.34 -55.55,44.99 -88.09,9.74 -5.3,-5.74 -13.13,-11.36 -23.72,-4.89l-38.83 29.39c-7.39,6.47 -9.5,15.39 -2.85,24.68 23.42,32.72 5.01,76.75 -31.87,83.89 -10.38,2.01 -22.01,-1.4 -29.55,3.98 -7.19,5.14 -7.25,15.66 -8.45,26.37 -2.66,23.94 -10.82,45.1 9.49,50.24 17.94,4.54 31.33,10.57 40.35,27.75 21.65,41.23 -13.81,65.93 -18.13,72.77 -5.35,8.49 0.61,20 6.84,23.02z"/>
   <path class="fil3" d="M397.07 44.18l-244.81 -0.06c-10.33,0 -26.52,-2.66 -26.42,9.87 0.1,11.73 14.08,9.82 24.11,9.83l246.77 -0.03 -22.94 24.46c-3.32,3.31 -9.64,8.57 -3.32,15.71 9.9,11.18 26.88,-12.04 40.03,-25.25 4.65,-4.67 21.38,-18.3 20.21,-26.8 -0.72,-5.17 -39.47,-42.03 -45.51,-48.25 -9.92,-10.2 -25.78,2.49 -11.05,16.85 3.68,3.58 21.59,20.89 22.93,23.64z"/>
   <path class="fil2" d="M178.36 534.37c11.65,-1.34 209.58,-0.28 243.23,-0.25 14.34,0.01 27.09,2.88 27.75,-8.56 0.76,-13.09 -12.03,-11.09 -23.13,-11.07l-246.96 0.04c3.07,-5.11 18.44,-19.39 23.31,-24.12 12.32,-11.95 -1.33,-27.19 -13.36,-14.5l-35.42 35.09c-14.22,14.62 -14.63,12.77 12.69,39.72 11.54,11.38 30.92,38.21 39.63,22.95 3.97,-6.95 -0.44,-12.29 -4.56,-16.4l-23.19 -22.89z"/>
  </g>
 </g>
</svg>
