<?xml version="1.0" encoding="UTF-8"?>
<svg xmlns="http://www.w3.org/2000/svg" viewBox="100 0 530 590" width="32" height="32">
  <path fill="#EF7F1A" d="M159.28 370.74c1.81,7.02 9.16,15.01 19.05,13.35 8.05,-1.35 14.88,-7.65 24.39,-10.29 28.14,-7.82 54.72,10.7 63.07,34.77 8.63,24.89 -11.89,40.23 22.8,46.7 71.91,13.4 48.9,6.79 66.03,-23.25 15.97,-28.01 60.92,-39.37 87.91,-4.76 5.68,7.28 13.72,11.76 24.36,6.16 6.51,-3.42 14.69,-9.92 20.53,-14.18 13.46,-9.83 35.11,-18.17 21.95,-39.15 -21.47,-34.23 2.93,-76.53 39.76,-80.59 26.88,-2.96 30.23,9.78 37.38,-29.72 1.61,-8.88 4.11,-20.13 5.02,-28.63 3.5,-32.78 -35.61,-12.14 -51.38,-51.33 -17.54,-43.59 16.12,-62.2 21.93,-70.53 6.28,-9.01 1.26,-18.63 -5.22,-23.38l-98.96 67.22c-9.48,9.81 23.72,38.3 0.25,99.7 -28.1,73.52 -120.21,98.53 -184.96,47.05 -4.3,-3.42 -7.06,-9.82 -14.09,-8.19 -3.19,0.74 -11.88,7.64 -14.78,9.64 -15.28,10.53 -75.76,51.01 -85.02,59.39z"/>
  <path fill="#2B2A29" d="M42.44 496.81l54.33 -41.67c8.88,-7.01 17.3,-13.44 26.64,-20.75 17.9,-13.99 18.68,-8.68 11.01,-27.28 -14.94,-36.21 -10.38,-83.16 12.72,-113.19 9.45,-12.29 12.4,-14.9 23.75,-24.74 37.42,-32.44 102.23,-33.64 143.78,-0.74 18.74,14.84 9.81,7.82 62.58,-29.88l47.5 -37.75c-2.08,-5.01 -10.52,-13.74 -19.76,-11.93 -7.39,1.44 -13.12,8.52 -23.03,11.58 -27.68,8.53 -55.64,-6.49 -65.64,-30.74 -9.88,-23.98 6.1,-41.88 -22.47,-45.86 -10.2,-1.42 -20.49,-2.68 -30.68,-3.93 -35.51,-4.36 -24.72,6.17 -35.96,29.93 -12.93,27.34 -55.55,44.99 -88.09,9.74 -5.3,-5.74 -13.13,-11.36 -23.72,-4.89l-38.83 29.39c-7.39,6.47 -9.5,15.39 -2.85,24.68 23.42,32.72 5.01,76.75 -31.87,83.89 -10.38,2.01 -22.01,-1.4 -29.55,3.98 -7.19,5.14 -7.25,15.66 -8.45,26.37 -2.66,23.94 -10.82,45.1 9.49,50.24 17.94,4.54 31.33,10.57 40.35,27.75 21.65,41.23 -13.81,65.93 -18.13,72.77 -5.35,8.49 0.61,20 6.84,23.02z"/>
  <path fill="#2B2A29" d="M397.07 44.18l-244.81 -0.06c-10.33,0 -26.52,-2.66 -26.42,9.87 0.1,11.73 14.08,9.82 24.11,9.83l246.77 -0.03 -22.94 24.46c-3.32,3.31 -9.64,8.57 -3.32,15.71 9.9,11.18 26.88,-12.04 40.03,-25.25 4.65,-4.67 21.38,-18.3 20.21,-26.8 -0.72,-5.17 -39.47,-42.03 -45.51,-48.25 -9.92,-10.2 -25.78,2.49 -11.05,16.85 3.68,3.58 21.59,20.89 22.93,23.64z"/>
  <path fill="#EF7F1A" d="M178.36 534.37c11.65,-1.34 209.58,-0.28 243.23,-0.25 14.34,0.01 27.09,2.88 27.75,-8.56 0.76,-13.09 -12.03,-11.09 -23.13,-11.07l-246.96 0.04c3.07,-5.11 18.44,-19.39 23.31,-24.12 12.32,-11.95 -1.33,-27.19 -13.36,-14.5l-35.42 35.09c-14.22,14.62 -14.63,12.77 12.69,39.72 11.54,11.38 30.92,38.21 39.63,22.95 3.97,-6.95 -0.44,-12.29 -4.56,-16.4l-23.19 -22.89z"/>
</svg>
